<svg width="24" height="24" viewBox="0 0 24 24" fill="none" xmlns="http://www.w3.org/2000/svg">
<path d="M14 2H6C5.46957 2 4.96086 2.21071 4.58579 2.58579C4.21071 2.96086 4 3.46957 4 4V10.1562M14 2L20 8M14 2V8H20M20 8V20C20 20.5304 19.7893 21.0391 19.4142 21.4142C19.0391 21.7893 18.5304 22 18 22H6C5.46957 22 4.96086 21.7893 4.58579 21.4142C4.21071 21.0391 4 20.5304 4 20V17.0625M8.39687 16.4905L11.1934 13.694M11.1934 13.694L8.39687 10.8974M11.1934 13.694H1.71704" stroke="#738196" stroke-width="2" stroke-linecap="round" stroke-linejoin="round"/>
</svg>
