<svg width="25" height="25" viewBox="0 0 25 25" fill="none" xmlns="http://www.w3.org/2000/svg">
<path d="M4.875 21.166V19.166C4.875 18.1051 5.29643 17.0877 6.04657 16.3375C6.79672 15.5874 7.81413 15.166 8.875 15.166H11.9686M16.875 7.16597C16.875 9.37511 15.0841 11.166 12.875 11.166C10.6659 11.166 8.875 9.37511 8.875 7.16597C8.875 4.95683 10.6659 3.16597 12.875 3.16597C15.0841 3.16597 16.875 4.95683 16.875 7.16597ZM19.7479 16.4929L18.6678 14.3046C18.521 14.0074 18.0971 14.0074 17.9504 14.3046L16.8703 16.4929L14.4542 16.846C14.1263 16.894 13.9955 17.2971 14.233 17.5284L15.8302 19.084C15.9245 19.1759 15.9676 19.3084 15.9453 19.4382L15.5685 21.6355C15.5124 21.9623 15.8555 22.2115 16.1489 22.0571L18.3091 20.9211L20.4693 22.0571C20.7627 22.2115 21.1058 21.9623 21.0497 21.6355L20.6373 19.2308L22.3852 17.5284C22.6226 17.2971 22.4919 16.894 22.164 16.846L19.7479 16.4929Z" stroke="#738196" stroke-width="2" stroke-linecap="round" stroke-linejoin="round"/>
</svg>
