<svg width="24" height="24" viewBox="0 0 24 24" fill="none" xmlns="http://www.w3.org/2000/svg">
<path d="M19.2082 9.09458V9.84395C19.2072 11.6004 18.6385 13.3095 17.5868 14.7163C16.5351 16.1232 15.0568 17.1523 13.3724 17.6503C11.688 18.1484 9.88776 18.0886 8.24013 17.4798C6.5925 16.8711 5.18578 15.7461 4.22977 14.2726C3.27376 12.7991 2.81968 11.056 2.93525 9.30336C3.05082 7.55069 3.72985 5.88233 4.87107 4.54711C6.01229 3.21188 7.55455 2.28133 9.26784 1.89424C10.9811 1.50714 12.7736 1.68424 14.3781 2.39913M21.0824 22.306L15.4674 16.691M19.2082 3.3277L11.0629 11.4812L8.61932 9.03757" stroke="#738196" stroke-width="2" stroke-linecap="round" stroke-linejoin="round"/>
</svg>
