<svg width="25" height="25" viewBox="0 0 25 25" fill="none" xmlns="http://www.w3.org/2000/svg">
<g clip-path="url(#clip0_234_1512)">
<path d="M4.95318 14.8111C4.76965 14.2902 4.19861 14.0167 3.6777 14.2002C3.1568 14.3837 2.8833 14.9548 3.06682 15.4757L4.95318 14.8111ZM6.14 5.78337L6.82478 6.51212C6.83213 6.50521 6.83937 6.4982 6.84651 6.49107L6.14 5.78337ZM1.5 10.1434H0.5C0.5 10.6957 0.947715 11.1434 1.5 11.1434L1.5 10.1434ZM13.2188 8.0394C13.2188 7.48711 12.7711 7.0394 12.2188 7.0394C11.6665 7.0394 11.2188 7.48711 11.2188 8.0394H13.2188ZM12.2188 12.3147H11.2188V12.7095L11.4885 12.9979L12.2188 12.3147ZM14.6676 16.3962C15.0449 16.7995 15.6778 16.8206 16.0811 16.4433C16.4844 16.066 16.5055 15.4332 16.1282 15.0299L14.6676 16.3962ZM2.5 4.14337C2.5 3.59109 2.05228 3.14337 1.5 3.14337C0.947715 3.14337 0.5 3.59109 0.5 4.14337H2.5ZM7.5 11.1434C8.05228 11.1434 8.5 10.6957 8.5 10.1434C8.5 9.59109 8.05229 9.14337 7.5 9.14337L7.5 11.1434ZM4.01 15.1434L3.06682 15.4757C3.78726 17.5205 5.15275 19.2759 6.95755 20.4772L7.51166 19.6447L8.06576 18.8123C6.62192 17.8512 5.52953 16.447 4.95318 14.8111L4.01 15.1434ZM7.51166 19.6447L6.95755 20.4772C8.76235 21.6785 10.9087 22.2608 13.0732 22.1362L13.0157 21.1378L12.9583 20.1395C11.2267 20.2391 9.5096 19.7734 8.06576 18.8123L7.51166 19.6447ZM13.0157 21.1378L13.0732 22.1362C15.2377 22.0116 17.303 21.187 18.9581 19.7865L18.3121 19.0231L17.6662 18.2597C16.3421 19.3801 14.6898 20.0398 12.9583 20.1395L13.0157 21.1378ZM18.3121 19.0231L18.9581 19.7865C20.6131 18.386 21.7682 16.4856 22.2493 14.3716L21.2742 14.1497L20.2992 13.9278C19.9143 15.619 18.9902 17.1394 17.6662 18.2597L18.3121 19.0231ZM21.2742 14.1497L22.2493 14.3716C22.7304 12.2576 22.5114 10.0445 21.6253 8.06577L20.7126 8.47447L19.8 8.88316C20.5088 10.4661 20.684 12.2366 20.2992 13.9278L21.2742 14.1497ZM20.7126 8.47447L21.6253 8.06577C20.7392 6.08704 19.2341 4.44988 17.3366 3.40096L16.8528 4.27613L16.369 5.15131C17.887 5.99044 19.0911 7.30018 19.8 8.88316L20.7126 8.47447ZM16.8528 4.27613L17.3366 3.40096C15.4392 2.35203 13.2523 1.94818 11.1054 2.25024L11.2447 3.24048L11.384 4.23073C13.1015 3.98908 14.8511 4.31217 16.369 5.15131L16.8528 4.27613ZM11.2447 3.24048L11.1054 2.25024C8.95844 2.55229 6.96784 3.54391 5.43349 5.07566L6.14 5.78337L6.84651 6.49107C8.07399 5.26567 9.66647 4.47238 11.384 4.23073L11.2447 3.24048ZM6.14 5.78337L5.45522 5.05461L0.815223 9.41461L1.5 10.1434L2.18478 10.8721L6.82478 6.51212L6.14 5.78337ZM12.2188 8.0394H11.2188V12.3147H12.2188H13.2188V8.0394H12.2188ZM12.2188 12.3147L11.4885 12.9979L14.6676 16.3962L15.3979 15.713L16.1282 15.0299L12.9491 11.6315L12.2188 12.3147ZM1.5 4.14337H0.5V10.1434H1.5H2.5V4.14337H1.5ZM1.5 10.1434L1.5 11.1434L7.5 11.1434L7.5 10.1434L7.5 9.14337L1.5 9.14337L1.5 10.1434Z" fill="#738196"/>
</g>
<defs>
<clipPath id="clip0_234_1512">
<rect width="24" height="24" fill="white" transform="translate(0.5 0.143372)"/>
</clipPath>
</defs>
</svg>
