<svg width="24" height="24" viewBox="0 0 24 24" fill="none" xmlns="http://www.w3.org/2000/svg">
<path d="M7.13439 16.1541C7.68668 16.1541 8.13439 15.7064 8.13439 15.1541C8.13439 14.6018 7.68668 14.1541 7.13439 14.1541C6.58211 14.1541 6.13439 14.6018 6.13439 15.1541C6.13439 15.7064 6.58211 16.1541 7.13439 16.1541Z" stroke="#738196" stroke-width="2" stroke-linecap="round" stroke-linejoin="round"/>
<path d="M12.0165 9.84592C12.5688 9.84592 13.0165 9.3982 13.0165 8.84592C13.0165 8.29363 12.5688 7.84592 12.0165 7.84592C11.4642 7.84592 11.0165 8.29363 11.0165 8.84592C11.0165 9.3982 11.4642 9.84592 12.0165 9.84592Z" stroke="#738196" stroke-width="2" stroke-linecap="round" stroke-linejoin="round"/>
<path d="M16.8656 16.1541C17.4179 16.1541 17.8656 15.7064 17.8656 15.1541C17.8656 14.6018 17.4179 14.1541 16.8656 14.1541C16.3133 14.1541 15.8656 14.6018 15.8656 15.1541C15.8656 15.7064 16.3133 16.1541 16.8656 16.1541Z" stroke="#738196" stroke-width="2" stroke-linecap="round" stroke-linejoin="round"/>
</svg>
