<svg width="24" height="25" viewBox="0 0 24 25" fill="none" xmlns="http://www.w3.org/2000/svg">
<path d="M12 13.8497C12.5523 13.8497 13 13.402 13 12.8497C13 12.2974 12.5523 11.8497 12 11.8497C11.4477 11.8497 11 12.2974 11 12.8497C11 13.402 11.4477 13.8497 12 13.8497Z" stroke="#738196" stroke-width="2" stroke-linecap="round" stroke-linejoin="round"/>
<path d="M12 6.84969C12.5523 6.84969 13 6.40197 13 5.84969C13 5.2974 12.5523 4.84969 12 4.84969C11.4477 4.84969 11 5.2974 11 5.84969C11 6.40197 11.4477 6.84969 12 6.84969Z" stroke="#738196" stroke-width="2" stroke-linecap="round" stroke-linejoin="round"/>
<path d="M12 20.8497C12.5523 20.8497 13 20.402 13 19.8497C13 19.2974 12.5523 18.8497 12 18.8497C11.4477 18.8497 11 19.2974 11 19.8497C11 20.402 11.4477 20.8497 12 20.8497Z" stroke="#738196" stroke-width="2" stroke-linecap="round" stroke-linejoin="round"/>
</svg>
